<svg xmlns="http://www.w3.org/2000/svg" viewBox="-40 -40 80 80" width="80" height="80">
  <defs/>
  <g>
    <path stroke="none" fill="#FFFFFF" d="M-6 -26 Q-2 -28 2 -26 6 -24 6 -20 L6 -16 Q10 -12 10 -6 L10 2 Q10 4 12 6 L16 10 Q18 12 16 14 L14 16 22 16 Q24 16 24 18 L24 24 Q24 26 22 26 L16 26 Q14 26 14 24 L14 20 -6 20 -6 24 Q-6 26 -8 26 L-14 26 Q-16 26 -16 24 L-16 18 Q-16 16 -14 16 L-8 16 -12 12 Q-18 6 -18 -2 L-18 -8 Q-18 -14 -14 -18 L-10 -22 Q-10 -24 -8 -26 L-6 -26 Z M-12 -6 Q-14 -6 -14 -4 -14 -2 -12 -2 -10 -2 -10 -4 -10 -6 -12 -6 Z"/>
  </g>
</svg>