<svg xmlns="http://www.w3.org/2000/svg" viewBox="-40 -40 80 80" width="80" height="80">
  <defs/>
  <g>
    <path stroke="none" fill="#FFFFFF" d="M-24 -16 L-20 -22 Q-18.5 -24 -17 -22 L-14 -16 -6 -16 Q2 -16 8 -14 L16 -12 22 -16 Q24 -18 25 -16 L27 -10 Q28 -8 26 -6 L24 -4 Q26 0 26 6 L26 14 Q26 16 24 16 L22 16 22 24 Q22 26 20 26 L16 26 Q14 26 14 24 L14 16 -6 16 -6 24 Q-6 26 -8 26 L-12 26 Q-14 26 -14 24 L-14 16 -18 16 Q-22 16 -24 12 L-26 8 Q-28 4 -26 0 L-24 -4 Q-26 -8 -26 -12 L-26 -14 Q-26 -16 -24 -16 Z M-22 -6 Q-24 -6 -24 -4 -24 -2 -22 -2 -20 -2 -20 -4 -20 -6 -22 -6 Z"/>
  </g>
</svg>