<svg xmlns="http://www.w3.org/2000/svg" viewBox="-40 -40 80 80" width="80" height="80">
  <defs/>
  <g>
    <path stroke="none" fill="#FFFFFF" d="M-18 -14 Q-10 -18 0 -18 12 -18 20 -12 L24 -10 Q28 -10 28 -6 L28 -2 Q28 2 24 2 L22 2 Q24 6 24 12 L24 16 Q24 18 22 18 L18 18 Q16 18 16 16 L16 12 -8 12 -8 16 Q-8 18 -10 18 L-14 18 Q-16 18 -16 16 L-16 12 Q-20 10 -22 6 L-22 2 -24 2 Q-28 2 -28 -2 L-28 -6 Q-28 -10 -24 -10 L-22 -10 Q-20 -12 -18 -14 Z M-24 -4 Q-26 -4 -26 -2 -26 0 -24 0 -22 0 -22 -2 -22 -4 -24 -4 Z M-18 -6 L-20 -2 Q-20 2 -16 2 L-12 2 Q-8 2 -8 -2 L-8 -6 Q-8 -10 -12 -10 L-16 -10 Q-20 -10 -18 -6 Z"/>
  </g>
</svg>