<svg xmlns="http://www.w3.org/2000/svg" viewBox="-40 -40 80 80" width="80" height="80">
  <defs/>
  <g>
    <path stroke="none" fill="#FFFFFF" d="M-8 -20 Q-4 -22 0 -22 4 -22 8 -20 12 -18 14 -14 Q18 -14 20 -12 22 -10 22 -6 L22 -4 Q24 -2 24 2 L24 6 Q24 10 22 12 L22 14 Q22 16 20 16 L18 16 18 24 Q18 26 16 26 L12 26 Q10 26 10 24 L10 16 -2 16 -2 24 Q-2 26 -4 26 L-10 26 Q-12 26 -12 24 L-12 16 -14 16 -16 14 Q-16 16 -18 16 L-20 16 Q-22 16 -24 14 -26 12 -26 10 L-26 6 Q-28 4 -28 0 -28 -4 -26 -6 L-26 -8 Q-26 -12 -22 -14 -18 -16 -14 -14 Q-12 -18 -8 -20 Z M-20 -2 Q-22 -2 -22 0 -22 2 -20 2 -18 2 -18 0 -18 -2 -20 -2 Z"/>
  </g>
</svg>