<svg xmlns="http://www.w3.org/2000/svg" viewBox="-40 -40 80 80" width="80" height="80">
  <defs/>
  <g>
    <path stroke="none" fill="#FFFFFF" d="M2 -26 Q3.5 -26 3.5 -24.5 L3.5 -12 18 -12 Q19.5 -12 19.5 -10.5 L19.5 -6 Q19.5 -4.5 18 -4.5 L3.5 -4.5 3.5 2 28 2 Q29.5 2 29 3.5 L24 18 Q23.5 19.5 22 19.5 L-22 19.5 Q-23.5 19.5 -24 18 L-29 3.5 Q-29.5 2 -28 2 L-3.5 2 -3.5 -4.5 -10 -4.5 Q-11.5 -4.5 -11.5 -6 L-11.5 -10.5 Q-11.5 -12 -10 -12 L-3.5 -12 -3.5 -24.5 Q-3.5 -26 -2 -26 L2 -26 Z M3.5 -24 L3.5 -19 14 -12 3.5 -12 3.5 -24 Z M-24 10 L-20 20 20 20 24 10 -24 10 Z"/>
  </g>
</svg>